<svg xmlns="http://www.w3.org/2000/svg" viewBox="0 0 14 16" width="16" height="16">
	<style>
		tspan { white-space:pre }
		.shp0 { fill: #66bb6a } 
	</style>
	<path id="Layer" fill-rule="evenodd" class="shp0" d="M12.6 3.1C13.5 3.6 14 4.6 14 5.6L14 10.4C14 11.4 13.5 12.4 12.6 12.9L8.5 15.3C7.6 15.8 6.5 15.8 5.6 15.3L1.5 12.9C0.5 12.4 0 11.4 0 10.4L0 5.6C0 4.6 0.6 3.6 1.4 3.1L5.5 0.7C6.4 0.2 7.5 0.2 8.4 0.7L12.6 3.1ZM2 4C1.4 4.3 1 5 1 5.6L1 10.3C1 11 1.4 11.7 2 12L6 14.4C6.6 14.7 7.3 14.7 7.9 14.4L12 12C12.6 11.7 13 11 13 10.3L13 5.6C13 5 12.6 4.3 12 4L8 1.6C7.4 1.3 6.6 1.3 6 1.6L2 4ZM11 4.5C11.6 4.9 12 5.6 12 6.3L12 9.6C12 10.4 11.6 11 11 11.4L8 13.2C7.4 13.6 6.6 13.6 5.9 13.2L3 11.5C2.4 11.1 2 10.4 2 9.7L2 6.3C2 5.6 2.4 4.9 3 4.5L6 2.8C6.6 2.5 7.4 2.5 8 2.8L11 4.5ZM5 10L9 10L9 6L5 6L5 10Z" />
</svg>
